<?xml version="1.0" encoding="UTF-8" standalone="no"?>
<svg
   xmlns:dc="http://purl.org/dc/elements/1.1/"
   xmlns:cc="http://creativecommons.org/ns#"
   xmlns:rdf="http://www.w3.org/1999/02/22-rdf-syntax-ns#"
   xmlns:svg="http://www.w3.org/2000/svg"
   xmlns="http://www.w3.org/2000/svg"
   xmlns:sodipodi="http://sodipodi.sourceforge.net/DTD/sodipodi-0.dtd"
   xmlns:inkscape="http://www.inkscape.org/namespaces/inkscape"
   inkscape:version="1.0 (4035a4f, 2020-05-01)"
   sodipodi:docname="Apple_Pay_Mark_RGB_041619.svg"
   xml:space="preserve"
   enable-background="new 0 0 165.52107 105.9651"
   viewBox="0 0 120.37706 51.064589"
   height="51.06459"
   width="120.37706"
   y="0px"
   x="0px"
   id="Artwork"
   version="1.1"><metadata
   id="metadata47"><rdf:RDF><cc:Work
       rdf:about=""><dc:format>image/svg+xml</dc:format><dc:type
         rdf:resource="http://purl.org/dc/dcmitype/StillImage" /></cc:Work></rdf:RDF></metadata><defs
   id="defs45" /><sodipodi:namedview
   inkscape:current-layer="g26"
   inkscape:window-maximized="0"
   inkscape:window-y="23"
   inkscape:window-x="0"
   inkscape:cy="51.982552"
   inkscape:cx="81.760537"
   inkscape:zoom="3.7336636"
   showgrid="false"
   id="namedview43"
   inkscape:window-height="682"
   inkscape:window-width="1264"
   inkscape:pageshadow="2"
   inkscape:pageopacity="0"
   guidetolerance="10"
   gridtolerance="10"
   objecttolerance="10"
   borderopacity="1"
   bordercolor="#666666"
   pagecolor="#ffffff" />
<g
   transform="translate(-0.99999966,-1)"
   id="g28">
	
	
	<g
   transform="translate(-21.43542,-28.05547)"
   id="g26">
		<g
   id="g16">
			<path
   style="fill:#ffffff"
   id="path12"
   d="m 45.1862,35.64053 c 1.41724,-1.77266 2.37897,-4.15282 2.12532,-6.58506 -2.07464,0.10316 -4.60634,1.36871 -6.07207,3.14276 -1.31607,1.5192 -2.4809,3.99902 -2.17723,6.3293 2.32889,0.20201 4.65563,-1.16408 6.12398,-2.887" />
			<path
   style="fill:#ffffff"
   id="path14"
   d="m 47.28506,38.98252 c -3.38211,-0.20146 -6.25773,1.91951 -7.87286,1.91951 -1.61602,0 -4.08931,-1.81799 -6.76438,-1.76899 -3.48177,0.05114 -6.71245,2.01976 -8.4793,5.15079 -3.63411,6.2636 -0.95904,15.55471 2.57494,20.65606 1.71618,2.5238 3.78447,5.30269 6.50976,5.20287 2.57494,-0.10104 3.58421,-1.66732 6.71416,-1.66732 3.12765,0 4.03679,1.66732 6.76252,1.61681 2.82665,-0.05054 4.59381,-2.52506 6.30997,-5.05132 1.96878,-2.877 2.77473,-5.65498 2.82542,-5.80748 -0.0507,-0.05051 -5.45058,-2.12204 -5.50065,-8.33358 -0.05098,-5.20101 4.23951,-7.6749 4.44144,-7.82832 C 52.3832,39.4881 48.5975,39.08404 47.28506,38.98252" />
		</g>
		<g
   id="g24">
			<path
   style="fill:#ffffff"
   id="path18"
   d="m 76.73385,31.94381 c 7.35096,0 12.4697,5.06708 12.4697,12.44437 0,7.40363 -5.22407,12.49704 -12.65403,12.49704 H 68.4106 V 69.8284 H 62.53023 V 31.9438 H 76.73385 Z M 68.41059,51.9493 h 6.74732 c 5.11975,0 8.0336,-2.75636 8.0336,-7.53479 0,-4.77792 -2.91385,-7.50845 -8.00727,-7.50845 h -6.77365 z" />
			<path
   style="fill:#ffffff"
   id="path20"
   d="m 90.73997,61.97864 c 0,-4.8311 3.70182,-7.79761 10.26583,-8.16526 l 7.56061,-0.44614 v -2.12639 c 0,-3.07185 -2.07423,-4.90959 -5.53905,-4.90959 -3.28251,0 -5.33041,1.57492 -5.82871,4.04313 h -5.35574 c 0.31499,-4.98859 4.56777,-8.66407 11.3941,-8.66407 6.69466,0 10.97377,3.54432 10.97377,9.08388 v 19.03421 h -5.43472 v -4.54194 h -0.13065 c -1.60125,3.07185 -5.09341,5.01441 -8.71623,5.01441 -5.4084,0 -9.18921,-3.3605 -9.18921,-8.32224 z m 17.82644,-2.49404 v -2.17905 l -6.8,0.41981 c -3.38683,0.23649 -5.30306,1.73291 -5.30306,4.09579 0,2.41504 1.99523,3.99046 5.04075,3.99046 3.96413,0 7.06231,-2.73053 7.06231,-6.32701 z" />
			<path
   style="fill:#ffffff"
   id="path22"
   d="m 119.34167,79.9889 v -4.5946 c 0.4193,0.10483 1.36425,0.10483 1.83723,0.10483 2.6252,0 4.04313,-1.10245 4.90908,-3.9378 0,-0.05267 0.49931,-1.68025 0.49931,-1.70658 l -9.97616,-27.64562 h 6.14268 l 6.98432,22.47371 h 0.10432 l 6.98433,-22.47371 h 5.9857 l -10.34483,29.06304 c -2.36186,6.69517 -5.0924,8.84789 -10.81577,8.84789 -0.47297,0 -1.8909,-0.05267 -2.31021,-0.13116 z" />
		</g>
	</g>
</g>
<g
   transform="translate(-0.99999966,-1)"
   id="g30">
</g>
<g
   transform="translate(-0.99999966,-1)"
   id="g32">
</g>
<g
   transform="translate(-0.99999966,-1)"
   id="g34">
</g>
<g
   transform="translate(-0.99999966,-1)"
   id="g36">
</g>
<g
   transform="translate(-0.99999966,-1)"
   id="g38">
</g>
<g
   transform="translate(-0.99999966,-1)"
   id="g40">
</g>
</svg>
