<?xml version="1.0" encoding="UTF-8" standalone="no"?>
<svg
   xmlns:dc="http://purl.org/dc/elements/1.1/"
   xmlns:cc="http://creativecommons.org/ns#"
   xmlns:rdf="http://www.w3.org/1999/02/22-rdf-syntax-ns#"
   xmlns:svg="http://www.w3.org/2000/svg"
   xmlns="http://www.w3.org/2000/svg"
   xmlns:sodipodi="http://sodipodi.sourceforge.net/DTD/sodipodi-0.dtd"
   xmlns:inkscape="http://www.inkscape.org/namespaces/inkscape"
   inkscape:version="1.0 (4035a4f, 2020-05-01)"
   sodipodi:docname="Buy-with-Google-Pay-Button-dark-no-shadow-english (3).svg"
   id="svg37"
   version="1.1"
   viewBox="0 0 103.41681 16.213808"
   height="16.213808"
   width="103.41681">
  <metadata
     id="metadata41">
    <rdf:RDF>
      <cc:Work
         rdf:about="">
        <dc:format>image/svg+xml</dc:format>
        <dc:type
           rdf:resource="http://purl.org/dc/dcmitype/StillImage" />
      </cc:Work>
    </rdf:RDF>
  </metadata>
  <sodipodi:namedview
     inkscape:current-layer="Buy-with-GPay-button"
     inkscape:window-maximized="0"
     inkscape:window-y="23"
     inkscape:window-x="0"
     inkscape:cy="8.753053"
     inkscape:cx="51.852"
     inkscape:zoom="4.0657895"
     showgrid="false"
     id="namedview39"
     inkscape:window-height="680"
     inkscape:window-width="1280"
     inkscape:pageshadow="2"
     inkscape:pageopacity="0"
     guidetolerance="10"
     gridtolerance="10"
     objecttolerance="10"
     borderopacity="1"
     bordercolor="#666666"
     pagecolor="#ffffff" />
  <!-- Generator: Sketch 49.3 (51167) - http://www.bohemiancoding.com/sketch -->
  <title
     id="title10">Group 21</title>
  <desc
     id="desc12">Created with Sketch.</desc>
  <defs
     id="defs14" />
  <g
     transform="translate(-24.148,-9.246947)"
     fill-rule="evenodd"
     fill="none"
     stroke-width="1"
     stroke="none"
     id="Buy-with-GPay">
    <g
       transform="translate(-141,-114)"
       id="Buy-with-GPay-button---dark-no-shadow-non-editable">
      <g
         transform="translate(141,114)"
         id="Buy-with-GPay-button">
        <g
           inkscape:export-ydpi="500"
           inkscape:export-xdpi="500"
           id="buy-with-+-G-PAy-logo"
           transform="translate(24,9)">
          <g
             id="label"
             transform="translate(0,2)"
             fill="#ffffff">
            <path
               d="m 0.148,0.976 h 3.766 c 0.5320027,0 1.0243311,0.1166655 1.477,0.35 0.4526689,0.2333345 0.814332,0.5553313 1.085,0.966 0.270668,0.4106687 0.406,0.8633309 0.406,1.358 0,0.4946691 -0.1236654,0.9239982 -0.371,1.288 C 6.2636654,5.3020018 5.9393353,5.5773324 5.538,5.764 V 5.848 C 6.0420025,6.0253342 6.4503318,6.3193313 6.763,6.73 7.0756682,7.1406687 7.232,7.6213306 7.232,8.172 7.232,8.7226694 7.0896681,9.2126645 6.805,9.642 6.5203319,10.071336 6.1376691,10.404999 5.657,10.643 5.1763309,10.881001 4.6513362,11 4.082,11 H 0.148 Z m 3.696,4.2 c 0.4480022,0 0.8096653,-0.1399986 1.085,-0.42 C 5.2043347,4.4759986 5.342,4.1540018 5.342,3.79 5.342,3.4259982 5.2090013,3.1063347 4.943,2.831 4.6769987,2.5556653 4.3293355,2.418 3.9,2.418 H 1.716 V 5.176 Z M 4.082,9.544 C 4.5580024,9.544 4.9383319,9.3946682 5.223,9.096 5.5076681,8.7973318 5.65,8.452002 5.65,8.06 5.65,7.6586647 5.5030015,7.3110015 5.209,7.017 4.9149985,6.7229985 4.5206691,6.576 4.026,6.576 h -2.31 v 2.968 z m 7.36,1.68 c -0.868004,0 -1.5283311,-0.258997 -1.981,-0.777 C 9.0083311,9.9289974 8.782,9.2080046 8.782,8.284 V 3.86 h 1.54 v 4.214 c 0,0.5786696 0.137665,1.0126652 0.413,1.302 0.275335,0.2893348 0.636998,0.434 1.085,0.434 0.364002,0 0.685999,-0.095666 0.966,-0.287 C 13.066001,9.3316657 13.280666,9.0773349 13.43,8.76 13.579334,8.4426651 13.654,8.1020018 13.654,7.738 V 3.86 h 1.54 V 11 h -1.456 v -0.924 h -0.084 c -0.196001,0.336002 -0.499331,0.611332 -0.91,0.826 -0.410669,0.214668 -0.844664,0.322 -1.302,0.322 z M 19.32,10.608 16.352,3.86 h 1.722 l 2.016,4.858 h 0.056 L 22.106,3.86 H 23.8 L 19.39,14.024 H 17.766 Z M 27.586,3.86 h 1.666 l 1.442,5.11 h 0.056 l 1.61,-5.11 h 1.582 l 1.596,5.11 h 0.056 l 1.442,-5.11 h 1.638 L 36.392,11 H 34.768 L 33.13,5.876 H 33.088 L 31.464,11 H 29.868 Z M 40.7,2.824 c -0.289335,0 -0.534332,-0.1003323 -0.735,-0.301 -0.200668,-0.2006677 -0.301,-0.4456652 -0.301,-0.735 0,-0.2893348 0.100332,-0.5343323 0.301,-0.735 0.200668,-0.20066767 0.445665,-0.301 0.735,-0.301 0.289335,0 0.534332,0.10033233 0.735,0.301 0.200668,0.2006677 0.301,0.4456652 0.301,0.735 0,0.2893348 -0.100332,0.5343323 -0.301,0.735 C 41.234332,2.7236677 40.989335,2.824 40.7,2.824 Z M 39.93,3.86 h 1.54 V 11 h -1.54 z m 6.464,7.252 c -0.317335,0 -0.615999,-0.05133 -0.896,-0.154 C 45.217999,10.855333 44.989334,10.720001 44.812,10.552 44.410665,10.150665 44.21,9.6046701 44.21,8.914 V 5.218 H 42.964 V 3.86 H 44.21 V 1.844 h 1.54 V 3.86 h 1.736 V 5.218 H 45.75 v 3.36 c 0,0.3826686 0.07467,0.6533325 0.224,0.812 0.140001,0.1866676 0.382665,0.28 0.728,0.28 0.158667,0 0.298666,-0.021 0.42,-0.063 0.121334,-0.042 0.251999,-0.1096662 0.392,-0.203 v 1.498 c -0.308002,0.140001 -0.681331,0.21 -1.12,0.21 z M 49.176,0.976 h 1.54 v 2.73 l -0.07,1.092 h 0.07 c 0.205334,-0.3360017 0.510998,-0.6136656 0.917,-0.833 0.406002,-0.2193344 0.842331,-0.329 1.309,-0.329 0.868004,0 1.530664,0.2543308 1.988,0.763 0.457336,0.5086692 0.686,1.2016623 0.686,2.079 V 11 h -1.54 V 6.688 c 0,-0.541336 -0.142332,-0.947332 -0.427,-1.218 -0.284668,-0.270668 -0.655664,-0.406 -1.113,-0.406 -0.345335,0 -0.655665,0.097999 -0.931,0.294 -0.275335,0.196001 -0.492333,0.4549984 -0.651,0.777 -0.158667,0.3220016 -0.238,0.6649982 -0.238,1.029 V 11 h -1.54 z"
               id="✏️" />
          </g>
          <g
             id="GPay"
             transform="translate(62.258994,0.246947)">
            <g
               id="Pay"
               transform="translate(17.863417,0.828573)"
               fill="#ffffff">
              <path
                 d="m 1.6726662,1.5529907 v 4.097232 h 2.553493 c 0.6082678,0 1.1112731,-0.2022862 1.5092053,-0.6068586 0.4083542,-0.4036359 0.613005,-0.8850021 0.613005,-1.4422257 0,-0.5459854 -0.2046508,-1.0217326 -0.613005,-1.4263049 C 5.3374323,1.7599594 4.834427,1.5520542 4.2261592,1.5520542 h -2.553493 z m 0,5.5394577 V 11.845238 H 0.14725949 V 0.11076503 H 4.1929035 c 1.0280862,0 1.9006947,0.33901668 2.6197203,1.01611357 0.7296371,0.6770968 1.0943135,1.5021623 1.0943135,2.4742598 0,0.9945738 -0.3647712,1.8252584 -1.0943135,2.4911171 C 6.1048729,6.7590507 5.231317,7.0915119 4.1929035,7.0915119 H 1.6726662 Z"
                 id="Fill-1" />
              <path
                 d="m 9.4484319,9.3868889 c 0,0.3933343 0.1686474,0.7211131 0.5060371,0.9833361 0.3372,0.262223 0.73229,0.393334 1.18527,0.393334 0.641334,0 1.21265,-0.235158 1.71575,-0.704256 0.503195,-0.4701279 0.754177,-1.0217324 0.754177,-1.6548132 -0.475624,-0.3717946 -1.138844,-0.5572236 -1.989661,-0.5572236 -0.619543,0 -1.135907,0.1479686 -1.549946,0.4429693 C 9.6559251,8.5851426 9.4484319,8.9495387 9.4484319,9.3868889 M 11.421986,3.5524306 c 1.127475,0 2.017137,0.2978102 2.67003,0.8934306 0.651851,0.5956205 0.977682,1.4122574 0.977682,2.4499107 v 4.9494561 h -1.45899 v -1.114447 h -0.06642 c -0.630059,0.917686 -1.470454,1.37667 -2.520142,1.37667 -0.895348,0 -1.6447868,-0.262223 -2.2465171,-0.786669 C 8.1751436,10.796337 7.8738521,10.14078 7.8738521,9.3541111 c 0,-0.8306846 0.3173035,-1.4910179 0.9530476,-1.9825921 0.6357441,-0.4916678 1.4838133,-0.73797 2.5449663,-0.73797 0.905674,0 1.652271,0.1638893 2.2378,0.4916679 V 6.7805811 c 0,-0.5244457 -0.210336,-0.969288 -0.629965,-1.3354635 -0.420766,-0.3661755 -0.911549,-0.548795 -1.475286,-0.548795 -0.851764,0 -1.5253121,0.3549374 -2.0227274,1.0657486 L 8.138098,5.1257676 c 0.7409119,-1.0488914 1.8352254,-1.573337 3.283888,-1.573337"
                 id="Fill-3" />
              <g
                 id="Group-7"
                 transform="translate(15.297599,3.772501)">
                <polygon
                   id="Fill-5"
                   points="0.020351389,0.042152323 1.6784022,0.042152323 4.0991564,5.811055 4.1323174,5.811055 6.4867496,0.042152323 8.1448004,0.042152323 3.0542054,11.612735 1.4794361,11.612735 3.3697088,7.564202 " />
              </g>
            </g>
            <g
               id="G">
              <path
                 d="m 13.372426,6.8964703 c 0,-0.4748107 -0.04074,-0.9327642 -0.117485,-1.3710509 H 6.8217042 V 8.1223621 H 10.506367 C 10.348142,8.9688736 9.8696754,9.6891436 9.1439228,10.171446 v 1.686655 h 2.1990492 c 1.287595,-1.174384 2.029454,-2.9097369 2.029454,-4.9616307"
                 id="Fill-8"
                 fill="#4285f4" />
              <path
                 d="m 6.8216948,13.485746 c 1.8409101,0 3.3909512,-0.597493 4.5212682,-1.627654 L 9.1439134,10.171437 c -0.6120576,0.407382 -1.4003424,0.645256 -2.3222186,0.645256 -1.7793254,0 -3.2895728,-1.1856224 -3.8296237,-2.7833087 H 0.72669999 V 9.7706106 C 1.8494372,11.973283 4.1564965,13.485746 6.8216948,13.485746"
                 id="Fill-10"
                 fill="#34a853" />
              <path
                 d="M 2.9920806,8.0333655 C 2.8537518,7.6259836 2.7779552,7.1914429 2.7779552,6.7428545 c 0,-0.4485884 0.075797,-0.8831291 0.2141254,-1.290511 V 3.7151171 H 0.72670946 C 0.26245523,4.625405 9.4745761e-6,5.6536932 9.4745761e-6,6.7428545 9.4745761e-6,7.8320159 0.26245523,8.8603977 0.72670946,9.7705919 Z"
                 id="Fill-12"
                 fill="#fabb05" />
              <path
                 d="m 6.8216948,2.669054 c 1.0052525,0 1.9062847,0.3418262 2.6168779,1.011431 v 9.365e-4 L 11.385598,1.7568931 C 10.203171,0.66866826 8.6616575,0 6.8216948,0 4.1564965,0 1.8494372,1.5124639 0.72669999,3.7151359 L 2.9920711,5.4523622 C 3.532122,3.8546759 5.0423694,2.669054 6.8216948,2.669054"
                 id="Fill-14"
                 fill="#e94235" />
            </g>
          </g>
        </g>
      </g>
    </g>
  </g>
</svg>
